<?xml version="1.0" standalone="no"?>
<!DOCTYPE svg PUBLIC "-//W3C//DTD SVG 20010904//EN"
 "http://www.w3.org/TR/2001/REC-SVG-20010904/DTD/svg10.dtd">
<svg version="1.0" xmlns="http://www.w3.org/2000/svg"
 width="267.000000pt" height="150.000000pt" viewBox="0 0 267.000000 150.000000"
 preserveAspectRatio="xMidYMid meet">

<g transform="translate(0.000000,150.000000) scale(0.100000,-0.100000)"
fill="#000000" stroke="none">
<path d="M360 995 l0 -445 105 0 105 0 0 185 0 185 160 0 160 0 0 -185 0 -185
105 0 105 0 0 445 0 445 -105 0 -105 0 0 -180 0 -180 -160 0 -160 0 0 180 0
180 -105 0 -105 0 0 -445z"/>
<path d="M1438 1207 c-148 -42 -226 -171 -216 -359 6 -101 35 -166 103 -226
63 -56 129 -77 235 -77 66 1 96 6 134 23 60 27 116 68 116 85 0 7 -20 35 -44
62 l-44 50 -23 -22 c-32 -29 -72 -43 -125 -43 -52 0 -94 19 -123 56 -42 53
-39 54 180 54 l201 0 -4 98 c-7 151 -59 243 -165 288 -52 21 -167 27 -225 11z
m159 -162 c19 -13 43 -68 43 -97 0 -5 -48 -8 -106 -8 l-106 0 6 33 c9 46 57
87 104 87 21 0 47 -7 59 -15z"/>
<path d="M1864 1195 c3 -8 55 -159 115 -335 107 -312 110 -321 96 -354 -19
-45 -50 -66 -97 -66 l-38 0 0 -70 0 -69 43 -12 c88 -24 197 21 236 99 10 20
77 206 149 412 72 206 134 383 137 393 7 16 -2 17 -103 17 l-109 0 -53 -180
c-30 -99 -57 -177 -61 -173 -4 5 -29 86 -55 181 l-47 172 -110 0 c-92 0 -108
-2 -103 -15z"/>
<path d="M1418 489 c-27 -15 -23 -57 7 -71 36 -16 75 3 75 36 0 38 -45 57 -82
35z"/>
<path d="M1070 275 l0 -215 39 0 c25 0 41 5 44 15 5 12 10 12 34 0 35 -19 55
-19 98 -1 46 20 65 61 65 141 0 80 -19 121 -65 141 -43 18 -63 18 -97 0 l-28
-15 0 75 0 74 -45 0 -45 0 0 -215z m180 6 c5 -11 10 -41 10 -66 0 -25 -5 -55
-10 -66 -12 -22 -59 -26 -78 -7 -16 16 -16 130 0 146 19 19 66 15 78 -7z"/>
<path d="M360 270 l0 -210 50 0 50 0 0 75 0 75 30 0 c28 0 33 -7 67 -75 l37
-75 54 0 53 0 -44 85 -44 86 33 33 c30 30 34 41 34 84 0 40 -6 57 -26 81 -33
39 -77 51 -196 51 l-98 0 0 -210z m217 104 c15 -24 15 -29 2 -53 -12 -22 -22
-26 -67 -29 l-52 -3 0 55 0 56 50 0 c42 0 52 -4 67 -26z"/>
<path d="M804 351 c-49 -22 -74 -68 -74 -136 0 -68 25 -114 74 -136 51 -23 84
-24 136 -3 53 21 80 66 80 134 0 73 -24 118 -74 141 -23 10 -54 19 -71 19 -16
0 -48 -9 -71 -19z m110 -73 c9 -12 16 -41 16 -63 0 -50 -23 -85 -55 -85 -32 0
-55 35 -55 85 0 50 23 85 55 85 13 0 31 -10 39 -22z"/>
<path d="M1400 215 l0 -155 50 0 50 0 0 155 0 155 -50 0 -50 0 0 -155z"/>
<path d="M1560 215 l0 -155 45 0 45 0 0 108 c0 113 6 132 45 132 39 0 45 -19
45 -132 l0 -108 45 0 45 0 0 120 c0 132 -9 163 -51 180 -34 15 -92 6 -110 -16
-11 -14 -14 -13 -21 5 -6 17 -16 21 -48 21 l-40 0 0 -155z"/>
</g>
</svg>
